<svg width="75" height="32" viewBox="0 0 75 32" fill="none" xmlns="http://www.w3.org/2000/svg">
<path d="M8.564 23.228C8.564 24.508 8.364 25.556 7.964 26.372C7.58 27.204 7.044 27.868 6.356 28.364C5.668 28.876 4.788 29.34 3.716 29.756L2.588 27.284C3.212 26.996 3.7 26.708 4.052 26.42C4.404 26.148 4.676 25.772 4.868 25.292C5.06 24.828 5.156 24.212 5.156 23.444V11.78H8.564V23.228ZM6.836 5.228C7.444 5.228 7.94 5.42 8.324 5.804C8.724 6.172 8.924 6.644 8.924 7.22C8.924 7.796 8.724 8.276 8.324 8.66C7.94 9.028 7.444 9.212 6.836 9.212C6.228 9.212 5.732 9.028 5.348 8.66C4.964 8.276 4.772 7.796 4.772 7.22C4.772 6.644 4.964 6.172 5.348 5.804C5.732 5.42 6.228 5.228 6.836 5.228ZM21.17 20.972C21.17 21.468 21.242 21.836 21.386 22.076C21.53 22.3 21.77 22.468 22.106 22.58L21.386 24.836C20.634 24.772 20.018 24.596 19.538 24.308C19.074 24.02 18.714 23.572 18.458 22.964C17.626 24.244 16.354 24.884 14.642 24.884C13.378 24.884 12.37 24.524 11.618 23.804C10.882 23.068 10.514 22.116 10.514 20.948C10.514 19.556 11.018 18.492 12.026 17.756C13.034 17.02 14.482 16.652 16.37 16.652H17.834V16.028C17.834 15.244 17.658 14.7 17.306 14.396C16.954 14.092 16.37 13.94 15.554 13.94C14.658 13.94 13.538 14.164 12.194 14.612L11.426 12.332C13.01 11.708 14.578 11.396 16.13 11.396C17.858 11.396 19.13 11.772 19.946 12.524C20.762 13.26 21.17 14.364 21.17 15.836V20.972ZM15.578 22.436C16.538 22.436 17.29 21.964 17.834 21.02V18.596H16.706C14.866 18.596 13.946 19.284 13.946 20.66C13.946 21.22 14.082 21.66 14.354 21.98C14.642 22.284 15.05 22.436 15.578 22.436ZM37.847 11.396C38.855 11.396 39.663 11.74 40.271 12.428C40.895 13.116 41.207 14.052 41.207 15.236V24.5H37.799V15.812C37.799 14.564 37.383 13.94 36.551 13.94C36.103 13.94 35.711 14.084 35.375 14.372C35.039 14.66 34.695 15.108 34.343 15.716V24.5H30.935V15.812C30.935 14.564 30.519 13.94 29.687 13.94C29.239 13.94 28.847 14.092 28.511 14.396C28.175 14.684 27.839 15.124 27.503 15.716V24.5H24.095V11.78H27.047L27.311 13.364C27.791 12.724 28.327 12.236 28.919 11.9C29.527 11.564 30.223 11.396 31.007 11.396C31.727 11.396 32.351 11.58 32.879 11.948C33.407 12.3 33.791 12.804 34.031 13.46C34.559 12.772 35.127 12.26 35.735 11.924C36.359 11.572 37.063 11.396 37.847 11.396ZM49.4068 8.876C48.8308 8.876 48.4148 9.012 48.1588 9.284C47.9188 9.556 47.7988 9.996 47.7988 10.604V11.78H50.8228L50.4388 14.18H47.7988V24.5H44.3908V14.18H42.3748V11.78H44.3908V10.508C44.3908 9.276 44.7908 8.276 45.5908 7.508C46.4068 6.724 47.5588 6.332 49.0468 6.332C50.2308 6.332 51.3508 6.588 52.4068 7.1L51.4708 9.356C50.7828 9.036 50.0948 8.876 49.4068 8.876ZM62.3088 24.5H59.3568L59.1888 22.796C58.7408 23.5 58.1968 24.028 57.5568 24.38C56.9168 24.716 56.1728 24.884 55.3248 24.884C54.1728 24.884 53.2928 24.54 52.6848 23.852C52.0768 23.148 51.7728 22.172 51.7728 20.924V11.78H55.1808V20.492C55.1808 21.164 55.2928 21.644 55.5168 21.932C55.7408 22.204 56.0928 22.34 56.5728 22.34C57.4848 22.34 58.2608 21.788 58.9008 20.684V11.78H62.3088V24.5ZM68.3621 24.884C67.3221 24.884 66.5141 24.588 65.9381 23.996C65.3621 23.388 65.0741 22.532 65.0741 21.428V6.716L68.4821 6.332V21.332C68.4821 21.892 68.7141 22.172 69.1781 22.172C69.4341 22.172 69.6581 22.124 69.8501 22.028L70.5461 24.452C69.8901 24.74 69.1621 24.884 68.3621 24.884Z" fill="#180A02"/>
</svg>
